<mxfile host="app.diagrams.net" modified="2022-10-22T14:11:33.348Z" agent="5.0 (Windows NT 10.0; Win64; x64) AppleWebKit/537.36 (KHTML, like Gecko) Chrome/106.0.0.0 Safari/537.36" etag="FnJU71PPI0LEZF2-qE4S" version="20.3.7" type="github" pages="4">
  <diagram id="RK82QppB5NHQeaTOXXpw" name="Over All">
    <mxGraphModel dx="1422" dy="1967" grid="1" gridSize="10" guides="1" tooltips="1" connect="1" arrows="1" fold="1" page="1" pageScale="1" pageWidth="827" pageHeight="1169" math="0" shadow="0">
      <root>
        <mxCell id="0" />
        <mxCell id="1" parent="0" />
        <mxCell id="U8t9DFMX4hppF1b_Cr_i-9" value="" style="rounded=0;whiteSpace=wrap;html=1;glass=0;movable=1;" parent="1" vertex="1">
          <mxGeometry x="20" y="-630" width="260" height="430" as="geometry" />
        </mxCell>
        <mxCell id="U8t9DFMX4hppF1b_Cr_i-1" style="edgeStyle=orthogonalEdgeStyle;rounded=0;orthogonalLoop=1;jettySize=auto;html=1;entryX=0;entryY=0.5;entryDx=0;entryDy=0;entryPerimeter=0;startArrow=classic;startFill=1;dashed=1;" parent="1" source="U8t9DFMX4hppF1b_Cr_i-4" target="U8t9DFMX4hppF1b_Cr_i-5" edge="1">
          <mxGeometry relative="1" as="geometry">
            <mxPoint x="330" y="-455" as="targetPoint" />
            <Array as="points">
              <mxPoint x="310" y="-290" />
              <mxPoint x="310" y="-450" />
              <mxPoint x="390" y="-450" />
            </Array>
          </mxGeometry>
        </mxCell>
        <mxCell id="U8t9DFMX4hppF1b_Cr_i-2" value="em0" style="edgeLabel;html=1;align=center;verticalAlign=middle;resizable=0;points=[];fontSize=11;rounded=0;" parent="U8t9DFMX4hppF1b_Cr_i-1" vertex="1" connectable="0">
          <mxGeometry x="-0.6911" y="-2" relative="1" as="geometry">
            <mxPoint x="-25" y="-2" as="offset" />
          </mxGeometry>
        </mxCell>
        <mxCell id="U8t9DFMX4hppF1b_Cr_i-3" value="Port x" style="edgeLabel;html=1;align=center;verticalAlign=middle;resizable=0;points=[];rounded=0;" parent="U8t9DFMX4hppF1b_Cr_i-1" vertex="1" connectable="0">
          <mxGeometry x="0.8586" relative="1" as="geometry">
            <mxPoint x="-13" y="5" as="offset" />
          </mxGeometry>
        </mxCell>
        <mxCell id="U8t9DFMX4hppF1b_Cr_i-17" style="edgeStyle=orthogonalEdgeStyle;rounded=0;orthogonalLoop=1;jettySize=auto;html=1;startArrow=classic;startFill=1;dashed=1;" parent="1" source="U8t9DFMX4hppF1b_Cr_i-4" target="U8t9DFMX4hppF1b_Cr_i-16" edge="1">
          <mxGeometry relative="1" as="geometry">
            <Array as="points">
              <mxPoint x="340" y="-270" />
            </Array>
          </mxGeometry>
        </mxCell>
        <mxCell id="U8t9DFMX4hppF1b_Cr_i-18" value="em1" style="edgeLabel;html=1;align=center;verticalAlign=middle;resizable=0;points=[];rounded=0;" parent="U8t9DFMX4hppF1b_Cr_i-17" vertex="1" connectable="0">
          <mxGeometry x="-0.7701" relative="1" as="geometry">
            <mxPoint as="offset" />
          </mxGeometry>
        </mxCell>
        <mxCell id="U8t9DFMX4hppF1b_Cr_i-4" value="Router VM&lt;br&gt;Opnsense" style="fontColor=#0066CC;verticalAlign=top;verticalLabelPosition=bottom;labelPosition=center;align=center;html=1;outlineConnect=0;fillColor=#CCCCCC;strokeColor=#6881B3;gradientColor=none;gradientDirection=north;strokeWidth=2;shape=mxgraph.networks.router;rounded=0;" parent="1" vertex="1">
          <mxGeometry x="70" y="-290" width="90" height="40" as="geometry" />
        </mxCell>
        <UserObject label="TP-Link switch" link="data:page/id,dd_UoUmQwpVErdtV02tc" id="U8t9DFMX4hppF1b_Cr_i-5">
          <mxCell style="fontColor=#0066CC;verticalAlign=top;verticalLabelPosition=bottom;labelPosition=center;align=center;html=1;outlineConnect=0;fillColor=#CCCCCC;strokeColor=#6881B3;gradientColor=none;gradientDirection=north;strokeWidth=2;shape=mxgraph.networks.switch;rounded=0;" parent="1" vertex="1">
            <mxGeometry x="390" y="-500" width="170" height="70" as="geometry" />
          </mxCell>
        </UserObject>
        <mxCell id="U8t9DFMX4hppF1b_Cr_i-7" style="edgeStyle=orthogonalEdgeStyle;rounded=0;orthogonalLoop=1;jettySize=auto;html=1;startArrow=classic;startFill=1;entryX=0.05;entryY=0.05;entryDx=0;entryDy=0;entryPerimeter=0;" parent="1" source="U8t9DFMX4hppF1b_Cr_i-6" target="U8t9DFMX4hppF1b_Cr_i-5" edge="1">
          <mxGeometry relative="1" as="geometry">
            <Array as="points">
              <mxPoint x="399" y="-540" />
            </Array>
          </mxGeometry>
        </mxCell>
        <mxCell id="U8t9DFMX4hppF1b_Cr_i-8" value="port 2" style="edgeLabel;html=1;align=center;verticalAlign=middle;resizable=0;points=[];rounded=0;" parent="U8t9DFMX4hppF1b_Cr_i-7" vertex="1" connectable="0">
          <mxGeometry x="0.7043" y="-2" relative="1" as="geometry">
            <mxPoint x="7" y="18" as="offset" />
          </mxGeometry>
        </mxCell>
        <mxCell id="U8t9DFMX4hppF1b_Cr_i-6" value="pve2" style="fontColor=#0066CC;verticalAlign=top;verticalLabelPosition=bottom;labelPosition=center;align=center;html=1;outlineConnect=0;fillColor=#CCCCCC;strokeColor=#6881B3;gradientColor=none;gradientDirection=north;strokeWidth=2;shape=mxgraph.networks.server;rounded=0;" parent="1" vertex="1">
          <mxGeometry x="30" y="-600" width="80" height="160" as="geometry" />
        </mxCell>
        <mxCell id="U8t9DFMX4hppF1b_Cr_i-11" style="edgeStyle=orthogonalEdgeStyle;rounded=0;orthogonalLoop=1;jettySize=auto;html=1;startArrow=classic;startFill=1;" parent="1" source="U8t9DFMX4hppF1b_Cr_i-10" target="U8t9DFMX4hppF1b_Cr_i-5" edge="1">
          <mxGeometry relative="1" as="geometry" />
        </mxCell>
        <mxCell id="U8t9DFMX4hppF1b_Cr_i-12" value="Port X" style="edgeLabel;html=1;align=center;verticalAlign=middle;resizable=0;points=[];rounded=0;" parent="U8t9DFMX4hppF1b_Cr_i-11" vertex="1" connectable="0">
          <mxGeometry x="0.8462" y="1" relative="1" as="geometry">
            <mxPoint x="-1" y="17" as="offset" />
          </mxGeometry>
        </mxCell>
        <UserObject label="Unifi AP AC lite" link="data:page/id,bRCjAlGiZhQxXE_Tppso" id="U8t9DFMX4hppF1b_Cr_i-10">
          <mxCell style="fontColor=#0066CC;verticalAlign=top;verticalLabelPosition=bottom;labelPosition=center;align=center;html=1;outlineConnect=0;fillColor=#CCCCCC;strokeColor=#6881B3;gradientColor=none;gradientDirection=north;strokeWidth=2;shape=mxgraph.networks.wireless_hub;rounded=0;" parent="1" vertex="1">
            <mxGeometry x="260" y="-900" width="100" height="85" as="geometry" />
          </mxCell>
        </UserObject>
        <mxCell id="U8t9DFMX4hppF1b_Cr_i-14" style="edgeStyle=orthogonalEdgeStyle;rounded=0;orthogonalLoop=1;jettySize=auto;html=1;entryX=0.95;entryY=0.05;entryDx=0;entryDy=0;entryPerimeter=0;startArrow=classic;startFill=1;" parent="1" source="U8t9DFMX4hppF1b_Cr_i-13" target="U8t9DFMX4hppF1b_Cr_i-5" edge="1">
          <mxGeometry relative="1" as="geometry" />
        </mxCell>
        <mxCell id="U8t9DFMX4hppF1b_Cr_i-15" value="Port X" style="edgeLabel;html=1;align=center;verticalAlign=middle;resizable=0;points=[];rounded=0;" parent="U8t9DFMX4hppF1b_Cr_i-14" vertex="1" connectable="0">
          <mxGeometry x="0.7462" y="1" relative="1" as="geometry">
            <mxPoint y="27" as="offset" />
          </mxGeometry>
        </mxCell>
        <mxCell id="U8t9DFMX4hppF1b_Cr_i-13" value="RPI4" style="fontColor=#0066CC;verticalAlign=top;verticalLabelPosition=bottom;labelPosition=center;align=center;html=1;outlineConnect=0;fillColor=#CCCCCC;strokeColor=#6881B3;gradientColor=none;gradientDirection=north;strokeWidth=2;shape=mxgraph.networks.pc;rounded=0;" parent="1" vertex="1">
          <mxGeometry x="680" y="-800" width="100" height="70" as="geometry" />
        </mxCell>
        <mxCell id="U8t9DFMX4hppF1b_Cr_i-16" value="Internet" style="ellipse;shape=cloud;whiteSpace=wrap;html=1;rounded=0;" parent="1" vertex="1">
          <mxGeometry x="280" y="-160" width="120" height="80" as="geometry" />
        </mxCell>
        <mxCell id="E8EOGPhub91n_TVj8ovf-1" value="N5105" style="rounded=0;whiteSpace=wrap;html=1;glass=0;movable=1;" vertex="1" parent="1">
          <mxGeometry x="550" y="-270" width="245" height="240" as="geometry" />
        </mxCell>
        <UserObject label="Detail" link="data:page/id,qvgigx6a_49jUqLQ-mN9" id="nuNIrxT3Yfp7LdkT0Gri-2">
          <mxCell style="text;html=1;strokeColor=none;fillColor=none;whiteSpace=wrap;align=center;verticalAlign=middle;fontColor=#0000EE;fontStyle=4;fontSize=11;rounded=0;" parent="1" vertex="1">
            <mxGeometry x="230" y="-630" width="60" height="40" as="geometry" />
          </mxCell>
        </UserObject>
        <mxCell id="E8EOGPhub91n_TVj8ovf-2" value="Router VM&lt;br&gt;Opnsense" style="fontColor=#0066CC;verticalAlign=top;verticalLabelPosition=bottom;labelPosition=center;align=center;html=1;outlineConnect=0;fillColor=#CCCCCC;strokeColor=#6881B3;gradientColor=none;gradientDirection=north;strokeWidth=2;shape=mxgraph.networks.router;rounded=0;" vertex="1" parent="1">
          <mxGeometry x="570" y="-130" width="90" height="40" as="geometry" />
        </mxCell>
        <mxCell id="E8EOGPhub91n_TVj8ovf-3" style="rounded=0;orthogonalLoop=1;jettySize=auto;html=1;startArrow=classic;startFill=1;" edge="1" parent="1" source="U8t9DFMX4hppF1b_Cr_i-16" target="E8EOGPhub91n_TVj8ovf-2">
          <mxGeometry relative="1" as="geometry" />
        </mxCell>
        <mxCell id="E8EOGPhub91n_TVj8ovf-4" value="&lt;span style=&quot;box-sizing: border-box; -webkit-font-smoothing: antialiased; font-family: SourceSansProSemibold; color: rgb(68, 68, 68); font-size: 14px; text-align: start;&quot;&gt;vtnet0&lt;/span&gt;" style="edgeLabel;html=1;align=center;verticalAlign=middle;resizable=0;points=[];" vertex="1" connectable="0" parent="E8EOGPhub91n_TVj8ovf-3">
          <mxGeometry x="0.588" y="1" relative="1" as="geometry">
            <mxPoint as="offset" />
          </mxGeometry>
        </mxCell>
        <mxCell id="E8EOGPhub91n_TVj8ovf-5" style="edgeStyle=none;rounded=0;orthogonalLoop=1;jettySize=auto;html=1;startArrow=classic;startFill=1;" edge="1" parent="1" source="U8t9DFMX4hppF1b_Cr_i-5" target="E8EOGPhub91n_TVj8ovf-2">
          <mxGeometry relative="1" as="geometry" />
        </mxCell>
        <mxCell id="E8EOGPhub91n_TVj8ovf-6" value="vtnet1" style="edgeLabel;html=1;align=center;verticalAlign=middle;resizable=0;points=[];" vertex="1" connectable="0" parent="E8EOGPhub91n_TVj8ovf-5">
          <mxGeometry x="0.8247" y="-1" relative="1" as="geometry">
            <mxPoint as="offset" />
          </mxGeometry>
        </mxCell>
      </root>
    </mxGraphModel>
  </diagram>
  <diagram id="qvgigx6a_49jUqLQ-mN9" name="PVE2">
    <mxGraphModel dx="1422" dy="798" grid="1" gridSize="10" guides="1" tooltips="1" connect="1" arrows="1" fold="1" page="1" pageScale="1" pageWidth="827" pageHeight="1169" math="0" shadow="0">
      <root>
        <mxCell id="0" />
        <mxCell id="1" parent="0" />
      </root>
    </mxGraphModel>
  </diagram>
  <diagram id="bRCjAlGiZhQxXE_Tppso" name="unifi AP">
    <mxGraphModel dx="1550" dy="871" grid="1" gridSize="10" guides="1" tooltips="1" connect="1" arrows="1" fold="1" page="1" pageScale="1" pageWidth="827" pageHeight="1169" math="0" shadow="0">
      <root>
        <mxCell id="0" />
        <mxCell id="1" parent="0" />
      </root>
    </mxGraphModel>
  </diagram>
  <diagram id="dd_UoUmQwpVErdtV02tc" name="TP Link">
    <mxGraphModel dx="1550" dy="871" grid="1" gridSize="10" guides="1" tooltips="1" connect="1" arrows="1" fold="1" page="1" pageScale="1" pageWidth="827" pageHeight="1169" math="0" shadow="0">
      <root>
        <mxCell id="0" />
        <mxCell id="1" parent="0" />
      </root>
    </mxGraphModel>
  </diagram>
</mxfile>
